<mxfile host="app.diagrams.net" agent="Mozilla/5.0 (Windows NT 10.0; Win64; x64) AppleWebKit/537.36 (KHTML, like Gecko) Chrome/130.0.0.0 Safari/537.36" version="24.8.4">
  <diagram name="Page-1" id="yQ_56kspnecyTHgmR5wI">
    <mxGraphModel dx="1235" dy="614" grid="1" gridSize="10" guides="1" tooltips="1" connect="1" arrows="1" fold="1" page="1" pageScale="1" pageWidth="850" pageHeight="1100" math="0" shadow="0">
      <root>
        <mxCell id="0" />
        <mxCell id="1" parent="0" />
        <mxCell id="JhSBl4Ctb37i-8C164pD-2" style="edgeStyle=orthogonalEdgeStyle;rounded=0;orthogonalLoop=1;jettySize=auto;html=1;entryX=0.5;entryY=1;entryDx=0;entryDy=0;" edge="1" parent="1" source="JhSBl4Ctb37i-8C164pD-1" target="JhSBl4Ctb37i-8C164pD-7">
          <mxGeometry relative="1" as="geometry">
            <mxPoint x="210" y="290" as="targetPoint" />
          </mxGeometry>
        </mxCell>
        <mxCell id="JhSBl4Ctb37i-8C164pD-1" value="Client(s)" style="rounded=0;whiteSpace=wrap;html=1;" vertex="1" parent="1">
          <mxGeometry y="400" width="80" height="50" as="geometry" />
        </mxCell>
        <mxCell id="JhSBl4Ctb37i-8C164pD-13" value="" style="edgeStyle=orthogonalEdgeStyle;rounded=0;orthogonalLoop=1;jettySize=auto;html=1;" edge="1" parent="1" source="JhSBl4Ctb37i-8C164pD-4">
          <mxGeometry relative="1" as="geometry">
            <mxPoint x="440" y="270" as="targetPoint" />
          </mxGeometry>
        </mxCell>
        <mxCell id="JhSBl4Ctb37i-8C164pD-4" value="API Rate Limiter" style="rounded=1;whiteSpace=wrap;html=1;" vertex="1" parent="1">
          <mxGeometry x="380" y="310" width="120" height="60" as="geometry" />
        </mxCell>
        <mxCell id="JhSBl4Ctb37i-8C164pD-37" style="edgeStyle=orthogonalEdgeStyle;rounded=0;orthogonalLoop=1;jettySize=auto;html=1;exitX=1;exitY=0.25;exitDx=0;exitDy=0;entryX=0;entryY=0.25;entryDx=0;entryDy=0;" edge="1" parent="1" source="JhSBl4Ctb37i-8C164pD-5" target="JhSBl4Ctb37i-8C164pD-21">
          <mxGeometry relative="1" as="geometry" />
        </mxCell>
        <mxCell id="JhSBl4Ctb37i-8C164pD-5" value="API Rate Limiter" style="rounded=1;whiteSpace=wrap;html=1;" vertex="1" parent="1">
          <mxGeometry x="380" y="360" width="120" height="60" as="geometry" />
        </mxCell>
        <mxCell id="JhSBl4Ctb37i-8C164pD-41" style="edgeStyle=orthogonalEdgeStyle;rounded=0;orthogonalLoop=1;jettySize=auto;html=1;entryX=0.75;entryY=0;entryDx=0;entryDy=0;" edge="1" parent="1" source="JhSBl4Ctb37i-8C164pD-6" target="JhSBl4Ctb37i-8C164pD-7">
          <mxGeometry relative="1" as="geometry" />
        </mxCell>
        <mxCell id="JhSBl4Ctb37i-8C164pD-6" value="API Rate Limiter" style="rounded=1;whiteSpace=wrap;html=1;" vertex="1" parent="1">
          <mxGeometry x="380" y="410" width="120" height="60" as="geometry" />
        </mxCell>
        <mxCell id="JhSBl4Ctb37i-8C164pD-36" style="edgeStyle=orthogonalEdgeStyle;rounded=0;orthogonalLoop=1;jettySize=auto;html=1;exitX=0.75;exitY=1;exitDx=0;exitDy=0;entryX=1;entryY=0.75;entryDx=0;entryDy=0;" edge="1" parent="1" source="JhSBl4Ctb37i-8C164pD-7" target="JhSBl4Ctb37i-8C164pD-1">
          <mxGeometry relative="1" as="geometry" />
        </mxCell>
        <mxCell id="JhSBl4Ctb37i-8C164pD-39" style="edgeStyle=orthogonalEdgeStyle;rounded=0;orthogonalLoop=1;jettySize=auto;html=1;entryX=0;entryY=0.5;entryDx=0;entryDy=0;" edge="1" parent="1" source="JhSBl4Ctb37i-8C164pD-7" target="JhSBl4Ctb37i-8C164pD-5">
          <mxGeometry relative="1" as="geometry" />
        </mxCell>
        <mxCell id="JhSBl4Ctb37i-8C164pD-7" value="Load balancer" style="rounded=0;whiteSpace=wrap;html=1;rotation=90;" vertex="1" parent="1">
          <mxGeometry x="180" y="375" width="120" height="60" as="geometry" />
        </mxCell>
        <mxCell id="JhSBl4Ctb37i-8C164pD-14" style="edgeStyle=orthogonalEdgeStyle;rounded=0;orthogonalLoop=1;jettySize=auto;html=1;exitX=0.25;exitY=1;exitDx=0;exitDy=0;entryX=0.25;entryY=0;entryDx=0;entryDy=0;" edge="1" parent="1" target="JhSBl4Ctb37i-8C164pD-4">
          <mxGeometry relative="1" as="geometry">
            <mxPoint x="410" y="270" as="sourcePoint" />
          </mxGeometry>
        </mxCell>
        <mxCell id="JhSBl4Ctb37i-8C164pD-19" value="" style="edgeStyle=orthogonalEdgeStyle;rounded=0;orthogonalLoop=1;jettySize=auto;html=1;" edge="1" parent="1" source="JhSBl4Ctb37i-8C164pD-12" target="JhSBl4Ctb37i-8C164pD-18">
          <mxGeometry relative="1" as="geometry" />
        </mxCell>
        <mxCell id="JhSBl4Ctb37i-8C164pD-12" value="Rule Engine Cache" style="rounded=1;whiteSpace=wrap;html=1;" vertex="1" parent="1">
          <mxGeometry x="370" y="210" width="120" height="60" as="geometry" />
        </mxCell>
        <mxCell id="JhSBl4Ctb37i-8C164pD-20" style="edgeStyle=orthogonalEdgeStyle;rounded=0;orthogonalLoop=1;jettySize=auto;html=1;exitX=0.75;exitY=1;exitDx=0;exitDy=0;entryX=0.75;entryY=0;entryDx=0;entryDy=0;" edge="1" parent="1" source="JhSBl4Ctb37i-8C164pD-18" target="JhSBl4Ctb37i-8C164pD-12">
          <mxGeometry relative="1" as="geometry" />
        </mxCell>
        <mxCell id="JhSBl4Ctb37i-8C164pD-18" value="Rule Engine" style="whiteSpace=wrap;html=1;rounded=1;" vertex="1" parent="1">
          <mxGeometry x="370" y="70" width="120" height="60" as="geometry" />
        </mxCell>
        <mxCell id="JhSBl4Ctb37i-8C164pD-38" style="edgeStyle=orthogonalEdgeStyle;rounded=0;orthogonalLoop=1;jettySize=auto;html=1;exitX=0;exitY=0.75;exitDx=0;exitDy=0;entryX=1;entryY=0.75;entryDx=0;entryDy=0;" edge="1" parent="1" source="JhSBl4Ctb37i-8C164pD-21" target="JhSBl4Ctb37i-8C164pD-5">
          <mxGeometry relative="1" as="geometry" />
        </mxCell>
        <mxCell id="JhSBl4Ctb37i-8C164pD-21" value="Web/Servers/backend" style="whiteSpace=wrap;html=1;rounded=1;" vertex="1" parent="1">
          <mxGeometry x="700" y="360" width="120" height="60" as="geometry" />
        </mxCell>
        <mxCell id="JhSBl4Ctb37i-8C164pD-27" style="edgeStyle=orthogonalEdgeStyle;rounded=0;orthogonalLoop=1;jettySize=auto;html=1;entryX=0.5;entryY=0;entryDx=0;entryDy=0;entryPerimeter=0;" edge="1" parent="1" source="JhSBl4Ctb37i-8C164pD-6" target="JhSBl4Ctb37i-8C164pD-28">
          <mxGeometry relative="1" as="geometry">
            <mxPoint x="450" y="630" as="targetPoint" />
          </mxGeometry>
        </mxCell>
        <mxCell id="JhSBl4Ctb37i-8C164pD-30" value="" style="edgeStyle=orthogonalEdgeStyle;rounded=0;orthogonalLoop=1;jettySize=auto;html=1;" edge="1" parent="1" source="JhSBl4Ctb37i-8C164pD-28" target="JhSBl4Ctb37i-8C164pD-29">
          <mxGeometry relative="1" as="geometry" />
        </mxCell>
        <mxCell id="JhSBl4Ctb37i-8C164pD-28" value="Cache (High throughput)" style="rounded=1;whiteSpace=wrap;html=1;" vertex="1" parent="1">
          <mxGeometry x="390" y="570" width="120" height="60" as="geometry" />
        </mxCell>
        <mxCell id="JhSBl4Ctb37i-8C164pD-32" style="edgeStyle=orthogonalEdgeStyle;rounded=0;orthogonalLoop=1;jettySize=auto;html=1;" edge="1" parent="1" source="JhSBl4Ctb37i-8C164pD-29" target="JhSBl4Ctb37i-8C164pD-31">
          <mxGeometry relative="1" as="geometry" />
        </mxCell>
        <mxCell id="JhSBl4Ctb37i-8C164pD-29" value="Logging Mechanism" style="rounded=1;whiteSpace=wrap;html=1;" vertex="1" parent="1">
          <mxGeometry x="390" y="660" width="120" height="60" as="geometry" />
        </mxCell>
        <mxCell id="JhSBl4Ctb37i-8C164pD-31" value="Long term STorage" style="shape=cylinder3;whiteSpace=wrap;html=1;boundedLbl=1;backgroundOutline=1;size=15;" vertex="1" parent="1">
          <mxGeometry x="420" y="760" width="60" height="80" as="geometry" />
        </mxCell>
        <mxCell id="JhSBl4Ctb37i-8C164pD-33" value="Success OK" style="text;html=1;align=center;verticalAlign=middle;resizable=0;points=[];autosize=1;strokeColor=none;fillColor=none;" vertex="1" parent="1">
          <mxGeometry x="540" y="375" width="90" height="30" as="geometry" />
        </mxCell>
      </root>
    </mxGraphModel>
  </diagram>
</mxfile>
